<?xml version="1.0" encoding="UTF-8" standalone="no"?>
<!-- Created with Inkscape (http://www.inkscape.org/) -->

<svg
   width="115.26526mm"
   height="153.15764mm"
   viewBox="0 0 115.26526 153.15764"
   version="1.1"
   id="svg1"
   xml:space="preserve"
   inkscape:version="1.3.2 (091e20ef0f, 2023-11-25, custom)"
   sodipodi:docname="kzz_logo_wektor_fw.svg"
   xmlns:inkscape="http://www.inkscape.org/namespaces/inkscape"
   xmlns:sodipodi="http://sodipodi.sourceforge.net/DTD/sodipodi-0.dtd"
   xmlns="http://www.w3.org/2000/svg"
   xmlns:svg="http://www.w3.org/2000/svg"><sodipodi:namedview
     id="namedview1"
     pagecolor="#ffffff"
     bordercolor="#000000"
     borderopacity="0.25"
     inkscape:showpageshadow="2"
     inkscape:pageopacity="0.0"
     inkscape:pagecheckerboard="0"
     inkscape:deskcolor="#d1d1d1"
     inkscape:document-units="mm"
     inkscape:zoom="1.0141844"
     inkscape:cx="383.06645"
     inkscape:cy="340.17484"
     inkscape:window-width="1920"
     inkscape:window-height="1048"
     inkscape:window-x="0"
     inkscape:window-y="-5"
     inkscape:window-maximized="1"
     inkscape:current-layer="g1" /><defs
     id="defs1"><rect
       x="146.86729"
       y="259.65784"
       width="307.60165"
       height="183.82874"
       id="rect1" /></defs><g
     inkscape:label="Layer 1"
     inkscape:groupmode="layer"
     id="layer1"
     transform="translate(-47.36737,-71.920973)"><g
       id="g1"><path
         style="font-family:Cocon;-inkscape-font-specification:Cocon;letter-spacing:0.495327px;white-space:pre;fill:#ffffff;fill-opacity:1;stroke-width:0.834932"
         d="M 47.823265,216.60498 H 47.36737 v 5.91764 c 0,0.59649 0.318066,0.90895 0.975403,0.89948 l 0.455895,-0.009 v -2.49014 c 0.62553,0.74799 1.261662,1.50544 1.993215,2.17769 0.24385,0.21777 0.614928,0.35032 0.932994,0.35032 0.583121,0 0.81637,-0.21777 0.964801,-0.6249 -0.349873,-0.10415 -0.583122,-0.19883 -1.10263,-0.66278 -0.508906,-0.46394 -0.954198,-0.98469 -1.410093,-1.48651 0.593723,-0.67224 1.918999,-2.01673 2.321883,-2.31971 v -0.0473 h -0.81637 c -0.455895,0 -0.795165,0.0473 -1.134436,0.33139 -0.657337,0.55862 -1.198049,1.21193 -1.749364,1.85577 v -3.04877 c 0,-0.49235 -0.28626,-0.84267 -0.975403,-0.84267 z m 5.728134,4.35538 c 0,1.35396 0.986005,2.57536 2.703562,2.57536 1.844785,0 2.83079,-1.2214 2.83079,-2.75526 0,-1.35395 -0.986005,-2.58482 -2.703563,-2.58482 -1.844784,0 -2.830789,1.23087 -2.830789,2.76472 z m 4.060645,0 c 0,0.8332 -0.402884,1.43917 -1.229856,1.43917 -0.943596,0 -1.357083,-0.60597 -1.357083,-1.61907 0,-0.84267 0.413487,-1.44863 1.229856,-1.44863 0.932995,0 1.357083,0.60596 1.357083,1.62853 z m 7.509296,0.71959 v -1.17406 c 0,-1.76109 -1.145038,-2.29131 -2.417303,-2.29131 -1.505514,0 -2.078033,0.68171 -2.078033,1.2498 v 0.40713 h 0.05301 c 0.212044,-0.2367 0.784563,-0.58702 1.812978,-0.58702 0.848176,0 1.229856,0.21776 1.229856,0.93735 v 0.0663 h -0.498304 c -2.099237,0 -2.841392,0.69118 -2.841392,1.60013 0,0.93735 0.932995,1.61906 2.290077,1.61906 h 0.28626 c 1.272265,0 2.16285,-0.74799 2.16285,-1.82736 z m -1.388889,0.009 c 0,0.52076 -0.296862,0.78587 -0.91179,0.78587 -0.62553,0 -0.986005,-0.23671 -0.986005,-0.63438 0,-0.4166 0.307464,-0.64383 1.388889,-0.64383 h 0.508906 z m 5.770534,1.0131 v -0.27458 h -0.38168 c -0.667939,0 -0.964801,-0.16096 -0.964801,-0.67224 v -4.29857 c 0,-0.48288 -0.307464,-0.85214 -1.017811,-0.85214 h -0.402884 v 5.2738 c 0,1.03203 0.636132,1.59066 1.812977,1.59066 0.62553,0 0.954199,-0.21777 0.954199,-0.76693 z m 2.791322,-5.50103 c 0,-0.40714 -0.381679,-0.73852 -0.837574,-0.73852 -0.455895,0 -0.826972,0.33138 -0.826972,0.73852 0,0.40713 0.371077,0.74799 0.826972,0.74799 0.455895,0 0.837574,-0.34086 0.837574,-0.74799 z m 1.017812,5.50103 v -0.27458 h -0.265055 c -0.62553,0 -0.869381,-0.16096 -0.869381,-0.67224 v -2.38599 c 0,-0.64384 -0.381679,-0.94682 -1.017812,-0.94682 h -0.402884 v 3.4559 c 0,1.03203 0.604326,1.59066 1.706956,1.59066 0.604325,0 0.848176,-0.21777 0.848176,-0.76693 z m 5.61151,-2.74578 v -0.5965 c 0,-0.60597 -0.646735,-1.09831 -1.558525,-1.09831 -1.950806,0 -3.085242,1.2498 -3.085242,2.70791 0,1.4581 1.357083,2.54695 2.926209,2.54695 1.028414,0 1.696353,-0.44501 1.696353,-1.06044 v -0.58703 h -0.05301 c -0.201442,0.2367 -0.689143,0.47341 -1.505513,0.47341 -0.964801,0 -1.579729,-0.63437 -1.579729,-1.56226 0,-0.75745 0.731552,-1.35395 1.558525,-1.35395 0.81637,0 1.357082,0.2367 1.547922,0.53022 z m 3.300228,-2.77419 c 0,-0.40713 -0.360475,-0.73852 -0.81637,-0.73852 -0.455894,0 -0.837574,0.33139 -0.837574,0.73852 0,0.40713 0.38168,0.74799 0.837574,0.74799 0.455895,0 0.81637,-0.34086 0.81637,-0.74799 z m -0.137828,6.20168 v -4.0808 c 0,-0.57756 -0.38168,-0.88054 -1.017812,-0.88054 h -0.402884 v 4.83826 c 0,0.49235 -0.349873,0.71958 -0.742155,0.73852 0,0 -0.487701,0.0379 -0.689143,0.0379 v 0.46394 c 0,0.31246 0.360475,0.57757 0.922392,0.57757 1.113232,0 1.929602,-0.62491 1.929602,-1.69482 z m 6.438473,-1.70427 v -1.17406 c 0,-1.76109 -1.145039,-2.29131 -2.417304,-2.29131 -1.505513,0 -2.078032,0.68171 -2.078032,1.2498 v 0.40713 h 0.05301 c 0.212044,-0.2367 0.784563,-0.58702 1.812977,-0.58702 0.848177,0 1.229856,0.21776 1.229856,0.93735 v 0.0663 h -0.498303 c -2.099237,0 -2.841392,0.69118 -2.841392,1.60013 0,0.93735 0.932994,1.61906 2.290077,1.61906 h 0.286259 c 1.272265,0 2.162851,-0.74799 2.162851,-1.82736 z m -1.388889,0.009 c 0,0.52076 -0.296862,0.78587 -0.91179,0.78587 -0.62553,0 -0.986006,-0.23671 -0.986006,-0.63438 0,-0.4166 0.307464,-0.64383 1.38889,-0.64383 h 0.508906 z m 12.773866,1.13619 v -0.49235 H 97.1317 c 0.127227,-0.2083 0.339271,-0.43554 0.540713,-0.63437 l 1.431298,-1.38236 c 0.498304,-0.48288 0.731552,-0.95629 0.731552,-1.35395 0,-0.29352 -0.222646,-0.65331 -0.890585,-0.65331 h -2.597541 c -0.636132,0 -0.943596,0.29351 -0.943596,0.67224 v 0.3882 h 2.809584 c -0.09542,0.17043 -0.318066,0.40713 -0.487701,0.57756 l -1.4419,1.4013 c -0.540713,0.52075 -0.869381,1.0131 -0.869381,1.40129 0,0.39767 0.318066,0.67225 0.975403,0.67225 h 2.78838 c 0.360475,0 0.731553,-0.28405 0.731553,-0.5965 z m 4.826941,-0.50182 c 0.26505,-0.54915 1.26166,-2.87833 1.26166,-3.41802 0,-0.41661 -0.21205,-0.5965 -0.66794,-0.5965 h -0.61493 c -0.12722,1.0415 -0.64673,2.58482 -1.11323,3.54111 -0.51951,-0.89948 -0.9436,-1.95992 -1.14504,-2.94461 -0.0742,-0.3598 -0.43469,-0.5965 -0.82697,-0.5965 h -0.75276 c 0.19084,1.20246 1.27227,3.73995 2.02502,4.75305 -0.30746,0.71958 -0.4877,0.90894 -1.00721,0.93735 l -0.80576,0.0473 v 0.24617 c 0,0.47341 0.46649,0.78587 0.9966,0.78587 1.02842,0 1.59034,-0.52076 2.65056,-2.75526 z m 10.28707,-3.49377 c 0,-0.3882 -0.28626,-0.54916 -0.68914,-0.54916 h -0.59373 c -0.22264,1.15513 -0.53011,2.33865 -1.07082,3.40856 -0.40288,-0.71958 -0.75276,-1.78002 -0.92239,-2.4712 -0.13783,-0.55863 -0.57252,-0.71959 -1.00721,-0.71959 h -0.4665 c -0.27566,1.07938 -0.56192,2.17769 -1.08142,3.19079 -0.4771,-0.92788 -0.74216,-1.89364 -0.91179,-2.76472 -0.053,-0.28404 -0.33927,-0.61543 -0.82698,-0.61543 h -0.76335 c 0.25445,1.70428 0.80576,3.18132 1.63274,4.48794 0.19084,0.30298 0.59372,0.68171 1.01781,0.68171 h 0.19084 c 0.5089,-0.61544 1.17684,-2.19663 1.35708,-2.97302 0.15903,0.77639 0.59372,1.72321 0.9436,2.29131 0.19084,0.31245 0.53011,0.68171 0.9754,0.68171 h 0.23325 c 0.37107,-0.49235 0.90119,-1.4297 1.32527,-2.50908 0.42409,-1.06044 0.65734,-1.94099 0.65734,-2.13982 z m 5.77053,2.84994 v -1.17406 c 0,-1.76109 -1.14503,-2.29131 -2.4173,-2.29131 -1.50551,0 -2.07803,0.68171 -2.07803,1.2498 v 0.40713 h 0.053 c 0.21204,-0.2367 0.78456,-0.58702 1.81298,-0.58702 0.84817,0 1.22985,0.21776 1.22985,0.93735 v 0.0663 h -0.4983 c -2.09924,0 -2.84139,0.69118 -2.84139,1.60013 0,0.93735 0.93299,1.61906 2.29007,1.61906 h 0.28626 c 1.27227,0 2.16285,-0.74799 2.16285,-1.82736 z m -1.38888,0.009 c 0,0.52076 -0.29687,0.78587 -0.91179,0.78587 -0.62553,0 -0.98601,-0.23671 -0.98601,-0.63438 0,-0.4166 0.30746,-0.64383 1.38889,-0.64383 h 0.50891 z m 12.77387,1.13619 v -0.49235 h -2.77778 c 0.12723,-0.2083 0.33927,-0.43554 0.54071,-0.63437 l 1.4313,-1.38236 c 0.49831,-0.48288 0.73155,-0.95629 0.73155,-1.35395 0,-0.29352 -0.22264,-0.65331 -0.89058,-0.65331 h -2.59754 c -0.63613,0 -0.9436,0.29351 -0.9436,0.67224 v 0.3882 h 2.80959 c -0.0954,0.17043 -0.31807,0.40713 -0.4877,0.57756 l -1.4419,1.4013 c -0.54072,0.52075 -0.86939,1.0131 -0.86939,1.40129 0,0.39767 0.31807,0.67225 0.97541,0.67225 h 2.78838 c 0.36047,0 0.73155,-0.28405 0.73155,-0.5965 z m 3.2684,-5.62412 c 0,-0.40714 -0.38168,-0.73852 -0.83757,-0.73852 -0.4559,0 -0.82697,0.33138 -0.82697,0.73852 0,0.40713 0.37107,0.74799 0.82697,0.74799 0.45589,0 0.83757,-0.34086 0.83757,-0.74799 z m 1.01782,5.50103 v -0.27458 h -0.26506 c -0.62553,0 -0.86938,-0.16096 -0.86938,-0.67224 v -2.38599 c 0,-0.64384 -0.38168,-0.94682 -1.01781,-0.94682 h -0.40289 v 3.4559 c 0,1.03203 0.60433,1.59066 1.70696,1.59066 0.60433,0 0.84818,-0.21777 0.84818,-0.76693 z m 6.0568,-2.52801 c 0,-1.2214 -1.10263,-1.97886 -2.29008,-1.97886 -1.63274,0 -2.79898,1.06991 -2.79898,2.77419 0,1.56225 1.38889,2.56589 2.80958,2.56589 1.56913,0 2.06743,-0.50182 2.06743,-1.15513 v -0.39766 h -0.053 c -0.45589,0.37873 -1.15564,0.48288 -1.74936,0.48288 -0.83758,0 -1.49491,-0.40714 -1.60093,-1.05098 h 0.93299 c 1.88719,0 2.68236,-0.30298 2.68236,-1.24033 z m -1.33588,-0.15149 c 0,0.35979 -0.30746,0.49234 -1.65394,0.49234 h -0.63614 l 0.0106,-0.17042 c 0.0318,-0.58703 0.5089,-1.08885 1.19805,-1.08885 0.65733,0 1.08142,0.25564 1.08142,0.76693 z m 11.17767,3.39909 v -3.06771 c 0,-1.44863 -1.06022,-2.15875 -2.3749,-2.15875 -0.68914,0 -1.31467,0.32192 -1.64334,0.79533 -0.41348,-0.49235 -0.99661,-0.79533 -1.73876,-0.79533 -1.72816,0 -2.54453,0.92789 -2.54453,2.31971 v 1.97886 c 0,0.58703 0.44529,0.92789 1.02841,0.92789 h 0.38168 v -3.0109 c 0,-0.70064 0.41349,-1.08884 0.96481,-1.08884 0.62553,0 1.06022,0.35979 1.06022,1.20246 v 1.96939 c 0,0.60597 0.41348,0.92789 1.03901,0.92789 h 0.38168 v -3.0393 c 0,-0.70065 0.39228,-1.06044 0.9648,-1.06044 0.62553,0 1.04962,0.35979 1.04962,1.20246 v 1.96939 c 0,0.60597 0.30746,0.92789 1.08143,0.92789 z m 3.53348,-6.22062 c 0,-0.40714 -0.38168,-0.73852 -0.83758,-0.73852 -0.45589,0 -0.82697,0.33138 -0.82697,0.73852 0,0.40713 0.37108,0.74799 0.82697,0.74799 0.4559,0 0.83758,-0.34086 0.83758,-0.74799 z m 1.01781,5.50103 v -0.27458 h -0.26506 c -0.62553,0 -0.86938,-0.16096 -0.86938,-0.67224 v -2.38599 c 0,-0.64384 -0.38168,-0.94682 -1.01781,-0.94682 h -0.40288 v 3.4559 c 0,1.03203 0.60432,1.59066 1.70695,1.59066 0.60433,0 0.84818,-0.21777 0.84818,-0.76693 z m 5.71752,-1.02256 v -1.17406 c 0,-1.76109 -1.14504,-2.29131 -2.4173,-2.29131 -1.50552,0 -2.07804,0.68171 -2.07804,1.2498 v 0.40713 h 0.053 c 0.21204,-0.2367 0.78456,-0.58702 1.81297,-0.58702 0.84818,0 1.22986,0.21776 1.22986,0.93735 v 0.0663 h -0.4983 c -2.09924,0 -2.8414,0.69118 -2.8414,1.60013 0,0.93735 0.933,1.61906 2.29008,1.61906 h 0.28626 c 1.27227,0 2.16285,-0.74799 2.16285,-1.82736 z m -1.38889,0.009 c 0,0.52076 -0.29686,0.78587 -0.91179,0.78587 -0.62553,0 -0.986,-0.23671 -0.986,-0.63438 0,-0.4166 0.30746,-0.64383 1.38889,-0.64383 h 0.5089 z M 98.49313,217.2198 c 0,-0.40713 -0.360475,-0.73852 -0.81637,-0.73852 -0.455895,0 -0.837575,0.33139 -0.837575,0.73852 0,0.40714 0.38168,0.74799 0.837575,0.74799 0.455895,0 0.81637,-0.34085 0.81637,-0.74799 z"
         id="text1"
         aria-label="koalicja  zywa  ziemia"
         sodipodi:nodetypes="scsccccscccccsccssssssssssssssssccsscssssssssscsscsssscssssssssscsssscssscsssssccsssccsssssssscsccsssssssccsscssssssssscssccccssssccccsssscsscccsccccsscsscccscccsccscccsccsssssccsscssssssssscssccccssssccccsssssssssscsssscssssssssccscssssccsscsscsssscssssscssssscsssssscsssscsssssssccsscssssssssscssssss" /><path
         fill="#febf00"
         d="m 102.07717,71.946892 c 2.51954,-0.195489 5.17957,0.729649 7.14749,2.274396 2.07216,1.626667 3.34081,4.218526 3.62955,6.798562 0.29025,2.593728 -0.46437,5.414728 -2.09578,7.458736 -1.90806,2.390175 -4.37943,3.488858 -7.36181,3.819332 -2.38848,0.05665 -4.768457,-0.360311 -6.713531,-1.846121 -2.27196,-1.735837 -3.843316,-4.202398 -4.203249,-7.062223 -0.33104,-2.631289 0.402989,-5.420544 2.046105,-7.508911 1.898997,-2.413724 4.55846,-3.575103 7.551225,-3.933771 z"
         id="path24"
         style="fill:#ffbe32;fill-opacity:1;stroke-width:0.188842" /><path
         fill="#1d0d01"
         d="m 82.973339,202.84573 c -0.4519,-0.54349 -0.948554,-1.08811 -1.306599,-1.69902 -0.938735,-1.60176 -1.022581,-3.58743 -0.864708,-5.39238 0.119914,-1.3693 0.660381,-2.71914 1.215199,-3.96285 0.693806,-1.55569 1.576643,-2.99108 2.507257,-4.41287 3.120805,-4.76789 7.230954,-8.79438 11.081068,-12.96307 l 8.886534,-9.77333 3.64125,-4.23611 c 0.6517,-0.83185 1.31945,-1.70657 1.78343,-2.66097 l -5.4481,-0.0431 -9.081227,3.7e-4 c -2.966143,-7.8e-4 -6.167585,0.2691 -9.052526,-0.52781 -1.416505,-0.39128 -2.619807,-1.18725 -3.609528,-2.26422 -1.613278,-1.75585 -2.030431,-3.91715 -1.930722,-6.22499 0.293649,-6.79435 10.050933,-16.56882 14.500055,-21.4045 l 7.439998,-8.13229 4.36434,-4.85853 c 1.12568,-1.37251 2.12315,-2.79808 3.05169,-4.31165 l -29.560599,-0.0225 c -0.01719,-3.4052 -0.523093,-7.26967 2.115976,-9.89892 1.36344,-1.358149 3.220325,-2.030427 5.080797,-2.34466 1.566069,-0.264568 3.189922,-0.198662 4.772608,-0.199229 l 5.883943,-0.0015 18.979955,0.0041 c 2.85228,0.03853 5.70927,0.464552 7.78558,2.609419 1.47505,1.52377 2.00079,3.57516 1.96793,5.65337 -0.0527,3.34836 -1.50167,6.80342 -3.24922,9.62056 -1.38874,2.23873 -3.09493,4.3294 -4.83643,6.30129 l -5.27134,5.60143 -8.41311,9.16715 -3.80272,4.30655 c -0.92683,1.11511 -1.82742,2.23835 -2.506873,3.52663 -0.06534,0.12388 -0.265324,0.43924 -0.243984,0.56784 l 5.566687,0.0534 9.13524,-0.005 c 2.30331,-0.001 4.83153,-0.20735 7.08498,0.29988 1.71563,0.386 3.38424,1.15534 4.55563,2.49914 1.50242,1.72319 2.06196,4.11053 1.87822,6.35284 -0.2995,3.65806 -1.98719,7.10009 -4.02272,10.0972 -2.25742,3.32362 -5.18692,6.24841 -7.92324,9.17471 l -10.45827,11.40096 c -2.1275,2.41964 -4.21817,4.74315 -5.853163,7.53537 l 29.142303,0.0333 0.004,3.91263 c -0.001,1.00237 0.0594,2.04931 -0.11123,3.04016 -0.22679,1.31453 -0.97083,2.51274 -1.89974,3.45109 -1.09699,1.10794 -2.54918,1.97775 -4.08712,2.29028 -1.18498,0.24077 -2.4929,0.1439 -3.6979,0.14559 l -5.75799,0.002 -21.113871,-0.006 c -1.71733,-0.009 -3.522283,-0.10689 -5.172197,-0.60562 -0.744793,-0.22511 -1.421226,-0.5535 -2.113899,-0.89983 -0.380706,-0.2338 -0.701926,-0.501 -1.035421,-0.79673 z"
         id="path25"
         style="fill:#ffffff;fill-opacity:1;stroke-width:0.188842" /><path
         fill="#febf00"
         d="m 104.72493,172.96637 -5.684525,6.65234 -0.318388,-1.14646 z"
         id="path26"
         style="fill:#ffbe32;fill-opacity:1;stroke-width:0.188842" /><path
         fill="#febf00"
         d="m 107.53377,175.04722 c -0.50497,0.85262 -1.26467,1.61271 -1.8922,2.37847 l -3.48168,4.275 -0.98444,-0.0421 -0.13067,-0.10594 c 0.12539,-0.25323 0.40034,-0.4687 0.60165,-0.66925 l 1.25957,-1.2507 z"
         id="path27"
         style="fill:#ffbe32;fill-opacity:1;stroke-width:0.188842" /><path
         fill="#febf00"
         d="m 107.53774,172.20175 0.008,0.13181 c -0.35691,0.48079 -0.78029,0.90247 -1.16515,1.36042 l -2.37545,2.88343 -1.98133,2.39886 c -0.57862,0.72534 -1.11965,1.47844 -1.80268,2.11125 -0.235308,0.21793 -0.563704,0.18148 -0.867548,0.1896 -0.06345,-0.22548 -0.04832,-0.44831 -0.04454,-0.67983 0.220758,-0.43226 0.680017,-0.79673 1.019178,-1.14571 l 2.4661,-2.50631 2.93781,-2.9737 c 0.58617,-0.5973 1.15402,-1.2456 1.80609,-1.76982 z"
         id="path28"
         style="fill:#ffbe32;fill-opacity:1;stroke-width:0.188842" /><path
         fill="#febf00"
         d="m 82.973339,202.84573 3.196719,-6.47389 c -1.180452,-1.52226 -1.571167,-2.84283 -1.329259,-4.78469 0.268722,-2.15791 0.937789,-4.15736 1.840833,-6.12283 0.183743,-0.40016 0.396379,-0.97103 0.701359,-1.29055 l 1.835168,3.13761 c 0.57087,-2.45589 1.842533,-4.72011 3.377252,-6.7003 l 0.682098,1.66823 c 0.09121,0.22812 0.173547,0.5652 0.33614,0.73875 0.904553,-2.26781 2.117298,-4.18229 3.65976,-6.06599 0.624501,1.85065 1.040709,3.69035 1.332281,5.62277 l 5.22299,0.79597 c -0.34803,0.42207 -0.77783,0.7854 -1.18045,1.1544 -1.24994,1.14495 -2.54615,2.04478 -4.046128,2.83489 0.803899,0.2506 1.874828,0.45738 2.598088,0.86188 -2.115974,1.71205 -4.175675,3.24034 -6.826263,4.02876 l 3.129681,1.61667 c -2.400939,1.27847 -4.633242,2.45212 -7.328586,2.98843 -0.537444,0.10689 -1.142117,0.19338 -1.69127,0.16014 -0.196396,-0.0119 -1.136263,-0.19772 -1.247491,-0.1439 -0.0019,7.2e-4 -0.08347,0.1371 -0.09348,0.15372 -0.614681,1.03297 -1.096795,2.17886 -1.618188,3.2615 -0.522715,1.08546 -1.149482,2.20737 -1.515836,3.35515 -0.380706,-0.23379 -0.701926,-0.501 -1.035421,-0.79672 z"
         id="path29"
         style="fill:#ffbe32;fill-opacity:1;stroke-width:0.188842" /><path
         fill="#1d0d01"
         d="m 96.772033,179.60455 c 0.163915,0.14824 0.201117,0.41111 0.251349,0.62015 0.183744,0.76444 0.265513,1.56381 0.354079,2.34467 -0.767832,0.0814 -1.41405,0.22755 -2.119375,0.5465 l -0.252293,0.13673 -0.133511,-0.0444 c 0.171468,-1.23597 1.152881,-2.6351 1.899751,-3.60367 z"
         id="path30"
         style="fill:#ffffff;fill-opacity:1;stroke-width:0.188842" /><path
         fill="#1d0d01"
         d="m 87.52179,187.33121 1.562102,3.28944 -1.425758,0.11595 c -0.450577,0.0576 -0.871317,0.23624 -1.295079,0.39242 0.314989,-1.29546 0.652072,-2.56202 1.158735,-3.79781 z"
         id="path31"
         style="fill:#ffffff;fill-opacity:1;stroke-width:0.188842" /><path
         fill="#1d0d01"
         d="m 92.286844,183.40707 0.969138,3.25715 c -0.946666,0.16241 -1.574944,0.36616 -2.361472,0.92457 l -0.548963,0.62696 c 0.42244,-1.72979 1.055816,-3.26546 1.941297,-4.80868 z"
         id="path32"
         style="fill:#ffffff;fill-opacity:1;stroke-width:0.188842" /><path
         fill="#1d0d01"
         d="m 97.781205,183.79117 c 1.162324,-0.091 2.487995,0.0512 3.620665,0.30102 -0.97404,0.80428 -1.976041,1.46201 -3.070001,2.09049 -0.25607,0.15371 -0.598818,0.28099 -0.888879,0.35219 -0.450767,0.11047 -1.16459,0.25097 -1.571545,-0.0238 -0.354267,-0.23907 -0.564449,-0.81202 -0.61487,-1.22785 -0.03229,-0.26702 -0.02681,-0.56974 0.162782,-0.78105 0.557462,-0.62073 1.597038,-0.63017 2.361848,-0.711 z"
         id="path33"
         style="fill:#ffffff;fill-opacity:1;stroke-width:0.188842" /><path
         fill="#1d0d01"
         d="m 92.980461,188.06788 c 1.897863,-0.0343 3.607829,0.23549 5.455083,0.65302 l -2.386209,1.46522 -1.538875,0.64509 c -0.667368,0.21774 -1.641605,0.52422 -2.298586,0.15013 -0.333874,-0.19016 -0.49911,-0.51742 -0.604673,-0.87301 -0.124825,-0.42018 -0.178833,-1.0156 0.07044,-1.39819 0.294972,-0.45285 0.814098,-0.54047 1.302822,-0.64226 z"
         id="path34"
         style="fill:#ffffff;fill-opacity:1;stroke-width:0.188842" /><path
         fill="#1d0d01"
         d="m 87.875869,192.12724 c 2.116731,-0.12804 4.595851,0.79615 6.437062,1.79494 l -2.179616,0.87056 c -1.332281,0.45568 -3.435604,1.20047 -4.792813,0.51384 -0.334062,-0.16901 -0.558973,-0.45284 -0.673411,-0.80749 -0.162405,-0.5044 -0.110095,-1.20689 0.133511,-1.67031 0.255126,-0.4857 0.586921,-0.55972 1.075267,-0.70154 z"
         id="path35"
         style="fill:#ffffff;fill-opacity:1;stroke-width:0.188842" /></g></g></svg>
